<svg width="412" height="412" viewBox="0 0 412 412" fill="none" xmlns="http://www.w3.org/2000/svg">
<circle cx="206" cy="206" r="206" fill="#24769A"/>
<g clip-path="url(#clip0_14_2)">
<path d="M90.19 205.997C90.19 251.837 116.831 291.453 155.462 310.226L100.217 158.865C93.7909 173.268 90.19 189.207 90.19 205.997V205.997Z" fill="white"/>
<path d="M284.188 200.153C284.188 185.84 279.047 175.928 274.637 168.213C268.766 158.673 263.264 150.594 263.264 141.055C263.264 130.409 271.338 120.499 282.712 120.499C283.225 120.499 283.712 120.563 284.212 120.591C263.607 101.715 236.156 90.1895 206.004 90.1895C165.544 90.1895 129.947 110.948 109.239 142.39C111.956 142.472 114.517 142.529 116.692 142.529C128.806 142.529 147.557 141.059 147.557 141.059C153.8 140.691 154.536 149.86 148.3 150.599C148.3 150.599 142.026 151.337 135.045 151.703L177.219 277.146L202.564 201.135L184.52 151.698C178.284 151.332 172.376 150.594 172.376 150.594C166.135 150.228 166.866 140.687 173.107 141.055C173.107 141.055 192.233 142.524 203.613 142.524C215.725 142.524 234.479 141.055 234.479 141.055C240.726 140.687 241.46 149.856 235.221 150.594C235.221 150.594 228.934 151.332 221.966 151.698L263.819 276.192L275.371 237.591C280.378 221.572 284.188 210.067 284.188 200.153V200.153Z" fill="white"/>
<path d="M208.036 216.127L173.288 317.097C183.663 320.147 194.635 321.815 206.004 321.815C219.491 321.815 232.425 319.483 244.464 315.25C244.153 314.754 243.871 314.228 243.64 313.655L208.036 216.127Z" fill="white"/>
<path d="M307.627 150.433C308.125 154.122 308.407 158.082 308.407 162.342C308.407 174.094 306.212 187.305 299.601 203.824L264.225 306.103C298.655 286.025 321.814 248.724 321.814 205.999C321.817 185.864 316.673 166.93 307.627 150.433V150.433Z" fill="white"/>
<path d="M206.004 71C131.565 71 71 131.559 71 205.997C71 280.443 131.565 341 206.004 341C280.442 341 341.015 280.443 341.015 205.997C341.013 131.559 280.442 71 206.004 71ZM206.004 334.812C134.978 334.812 77.1903 277.025 77.1903 205.997C77.1903 134.972 134.976 77.1901 206.004 77.1901C277.028 77.1901 334.812 134.972 334.812 205.997C334.812 277.025 277.028 334.812 206.004 334.812Z" fill="white"/>
</g>
<defs>
<clipPath id="clip0_14_2">
<rect width="270" height="270" fill="white" transform="translate(71 71)"/>
</clipPath>
</defs>
</svg>
